<svg enable-background="new 0 0 166 42" viewBox="0 0 166 42" xmlns="http://www.w3.org/2000/svg"><path d="m107.7 11.4-20.4 30.6h-23.8l20.4-30.6z" fill="#5d7db2"/><path d="m77.1.1h23.8l-20.4 30.5h-23.8z" fill="#5da0df" opacity=".8"/><path d="m27.1 15.6h-2.8v8.2l-3.5 5.5v-13.7h-4.5v-2.7h12.6z" fill="#ffffff"/><path d="m37.2 12.9-3.6 5.4v11h3.6z" fill="#ffffff"/><path d="m43.1 29.2v-16.3h4.6l4.5 9.9 4.6-9.9h4.7v16.4h-3.7v-10.9l-5.6 10-5.4-10v5.3z" fill="#ffffff"/><path d="m66.2 18.4 3.6-5.5v10s0 3.6 3.7 3.6 3.7-3.6 3.7-3.6v-9.9h3.6v10s.1 6.4-7.4 6.4-7.2-6.4-7.2-6.4z" fill="#ffffff"/><path d="m86.1 12.9h3.7v13.7h6.5l-1.8 2.7h-8.4z" fill="#ffffff"/><path d="m148.9 12.9v2.7h-7.3v3.7h6.5l-2 2.6h-4.5v7.4h-3.6v-16.4z" fill="#ffffff"/><path d="m157.7 15.6h-4.5v-2.7h12.6l-1.9 2.7h-2.7v13.7h-3.5z" fill="#ffffff"/><path d="m113 14.7-1.9 2.7-4.5-1.8h-.2s-1.7.1-1.7 1.7 2.6 2.5 2.6 2.5 2.3.6 3.8 1.8 1.7 2.1 1.7 3.1-.1 2.2-1.7 3.4c-1.7 1.2-4.1 1.2-4.6 1.2-1.3 0-2.7-.2-4-.7-1.9-.7-2.3-1.1-2.3-1.1l1.8-2.7 4.5 1.8h.5s2.2-.1 2.2-1.7-2.7-2.5-2.7-2.5-3.2-.7-4.5-2.5c-.5-.7-.8-1.2-.8-2.2s.4-3 2.6-4c.7-.2 1.4-.7 2.6-.7s3.2.7 3.7.8c.6.2 2.9.9 2.9.9z" fill="#ffffff"/><path d="m11 17.4-4.5-1.8h-.2s-1.6.2-1.6 1.7 1.7 2.2 3.2 2.7 2.4.9 3.6 2 1.2 2.2 1.2 2.6c0 .3.1 2.4-1.9 3.5s-3.6 1.2-4.3 1.2-2.6-.3-3.9-.8c-1.3-.6-2.3-1.1-2.3-1.1l1.8-2.7 4.7 1.8h.4s2.1-.2 2.1-1.7-1.4-2.2-3.2-2.8-4.9-1.9-4.9-4.6 2.5-4.6 5.4-4.6c1.9 0 6.3 1.8 6.3 1.8z" fill="#ffffff"/><path d="m125.5 13.1h-.6s-7.4.2-7.4 7.5v.9s-.3 6.5 7 7.4h1.5s7-.5 7-7.3-3.7-8.1-7.5-8.5zm-.4 13.3c-2.4 0-4.3-2.4-4.3-5.3 0-3 1.9-5.3 4.3-5.3s4.3 2.4 4.3 5.3-1.9 5.3-4.3 5.3z" fill="#ffffff"/></svg>
